<mxfile host="Electron" agent="Mozilla/5.0 (Windows NT 10.0; Win64; x64) AppleWebKit/537.36 (KHTML, like Gecko) draw.io/25.0.1 Chrome/128.0.6613.186 Electron/32.2.6 Safari/537.36" version="25.0.1">
  <diagram name="Page-1" id="D5NQvc-cIGM0TPNQLe01">
    <mxGraphModel dx="3542" dy="2397" grid="1" gridSize="10" guides="1" tooltips="1" connect="1" arrows="1" fold="1" page="1" pageScale="1" pageWidth="827" pageHeight="1169" math="0" shadow="0">
      <root>
        <mxCell id="0" />
        <mxCell id="1" parent="0" />
        <mxCell id="1FVmbJvEUlSZ4SS6cE_9-54" value="" style="shape=folder;fontStyle=1;tabWidth=80;tabHeight=30;tabPosition=left;html=1;boundedLbl=1;whiteSpace=wrap;" parent="1" vertex="1">
          <mxGeometry x="-220" y="300" width="690" height="370" as="geometry" />
        </mxCell>
        <mxCell id="1FVmbJvEUlSZ4SS6cE_9-43" value="" style="shape=folder;fontStyle=1;tabWidth=80;tabHeight=30;tabPosition=left;html=1;boundedLbl=1;whiteSpace=wrap;" parent="1" vertex="1">
          <mxGeometry x="950" y="280" width="690" height="370" as="geometry" />
        </mxCell>
        <mxCell id="1FVmbJvEUlSZ4SS6cE_9-37" value="" style="shape=folder;fontStyle=1;tabWidth=80;tabHeight=30;tabPosition=left;html=1;boundedLbl=1;whiteSpace=wrap;" parent="1" vertex="1">
          <mxGeometry x="1172" y="-440" width="380" height="370" as="geometry" />
        </mxCell>
        <mxCell id="1FVmbJvEUlSZ4SS6cE_9-31" value="" style="shape=folder;fontStyle=1;tabWidth=80;tabHeight=30;tabPosition=left;html=1;boundedLbl=1;whiteSpace=wrap;" parent="1" vertex="1">
          <mxGeometry x="-180" y="-370" width="380" height="370" as="geometry" />
        </mxCell>
        <mxCell id="1FVmbJvEUlSZ4SS6cE_9-32" value="Controllers" style="text;html=1;align=center;verticalAlign=middle;whiteSpace=wrap;rounded=0;" parent="1" vertex="1">
          <mxGeometry x="-80" y="-390" width="140" height="30" as="geometry" />
        </mxCell>
        <mxCell id="1FVmbJvEUlSZ4SS6cE_9-65" style="edgeStyle=orthogonalEdgeStyle;rounded=0;orthogonalLoop=1;jettySize=auto;html=1;entryX=0.5;entryY=0;entryDx=0;entryDy=0;" parent="1" source="1FVmbJvEUlSZ4SS6cE_9-33" target="1FVmbJvEUlSZ4SS6cE_9-39" edge="1">
          <mxGeometry relative="1" as="geometry">
            <Array as="points">
              <mxPoint x="-70" y="-360" />
              <mxPoint x="690" y="-360" />
              <mxPoint x="690" y="-390" />
              <mxPoint x="1281" y="-390" />
            </Array>
          </mxGeometry>
        </mxCell>
        <mxCell id="1FVmbJvEUlSZ4SS6cE_9-33" value="UserController&lt;div&gt;&lt;br&gt;&lt;/div&gt;" style="rounded=0;whiteSpace=wrap;html=1;" parent="1" vertex="1">
          <mxGeometry x="-130" y="-280" width="120" height="60" as="geometry" />
        </mxCell>
        <mxCell id="1FVmbJvEUlSZ4SS6cE_9-66" style="edgeStyle=orthogonalEdgeStyle;rounded=0;orthogonalLoop=1;jettySize=auto;html=1;entryX=0.5;entryY=1;entryDx=0;entryDy=0;" parent="1" source="1FVmbJvEUlSZ4SS6cE_9-34" target="1FVmbJvEUlSZ4SS6cE_9-40" edge="1">
          <mxGeometry relative="1" as="geometry" />
        </mxCell>
        <mxCell id="1FVmbJvEUlSZ4SS6cE_9-34" value="WishlistController" style="rounded=0;whiteSpace=wrap;html=1;" parent="1" vertex="1">
          <mxGeometry x="30" y="-280" width="120" height="60" as="geometry" />
        </mxCell>
        <mxCell id="1FVmbJvEUlSZ4SS6cE_9-68" style="edgeStyle=orthogonalEdgeStyle;rounded=0;orthogonalLoop=1;jettySize=auto;html=1;entryX=0.25;entryY=1;entryDx=0;entryDy=0;" parent="1" source="1FVmbJvEUlSZ4SS6cE_9-35" target="1FVmbJvEUlSZ4SS6cE_9-41" edge="1">
          <mxGeometry relative="1" as="geometry" />
        </mxCell>
        <mxCell id="1FVmbJvEUlSZ4SS6cE_9-69" style="edgeStyle=orthogonalEdgeStyle;rounded=0;orthogonalLoop=1;jettySize=auto;html=1;entryX=0;entryY=0.25;entryDx=0;entryDy=0;" parent="1" source="1FVmbJvEUlSZ4SS6cE_9-35" target="1FVmbJvEUlSZ4SS6cE_9-39" edge="1">
          <mxGeometry relative="1" as="geometry">
            <Array as="points">
              <mxPoint x="536" y="-270" />
              <mxPoint x="756" y="-270" />
              <mxPoint x="756" y="-315" />
            </Array>
          </mxGeometry>
        </mxCell>
        <mxCell id="1FVmbJvEUlSZ4SS6cE_9-70" style="edgeStyle=orthogonalEdgeStyle;rounded=0;orthogonalLoop=1;jettySize=auto;html=1;entryX=0.25;entryY=1;entryDx=0;entryDy=0;" parent="1" source="1FVmbJvEUlSZ4SS6cE_9-35" target="1FVmbJvEUlSZ4SS6cE_9-40" edge="1">
          <mxGeometry relative="1" as="geometry">
            <Array as="points">
              <mxPoint x="95" y="-210" />
              <mxPoint x="1101" y="-210" />
              <mxPoint x="1101" y="-270" />
              <mxPoint x="1412" y="-270" />
            </Array>
          </mxGeometry>
        </mxCell>
        <mxCell id="1FVmbJvEUlSZ4SS6cE_9-71" style="edgeStyle=orthogonalEdgeStyle;rounded=0;orthogonalLoop=1;jettySize=auto;html=1;" parent="1" source="1FVmbJvEUlSZ4SS6cE_9-35" target="1FVmbJvEUlSZ4SS6cE_9-42" edge="1">
          <mxGeometry relative="1" as="geometry">
            <Array as="points">
              <mxPoint x="756" y="-160" />
              <mxPoint x="756" y="-170" />
            </Array>
          </mxGeometry>
        </mxCell>
        <mxCell id="1FVmbJvEUlSZ4SS6cE_9-35" value="ControlPanelController" style="rounded=0;whiteSpace=wrap;html=1;" parent="1" vertex="1">
          <mxGeometry x="30" y="-150" width="130" height="60" as="geometry" />
        </mxCell>
        <mxCell id="1FVmbJvEUlSZ4SS6cE_9-67" style="edgeStyle=orthogonalEdgeStyle;rounded=0;orthogonalLoop=1;jettySize=auto;html=1;entryX=0.75;entryY=0;entryDx=0;entryDy=0;" parent="1" source="1FVmbJvEUlSZ4SS6cE_9-36" target="1FVmbJvEUlSZ4SS6cE_9-42" edge="1">
          <mxGeometry relative="1" as="geometry">
            <Array as="points">
              <mxPoint x="-70" y="-230" />
              <mxPoint x="671" y="-230" />
              <mxPoint x="671" y="-280" />
              <mxPoint x="1312" y="-280" />
            </Array>
          </mxGeometry>
        </mxCell>
        <mxCell id="1FVmbJvEUlSZ4SS6cE_9-36" value="OrderController" style="rounded=0;whiteSpace=wrap;html=1;" parent="1" vertex="1">
          <mxGeometry x="-130" y="-150" width="120" height="60" as="geometry" />
        </mxCell>
        <mxCell id="1FVmbJvEUlSZ4SS6cE_9-38" value="Services" style="text;html=1;align=center;verticalAlign=middle;whiteSpace=wrap;rounded=0;" parent="1" vertex="1">
          <mxGeometry x="1272" y="-460" width="140" height="30" as="geometry" />
        </mxCell>
        <mxCell id="1FVmbJvEUlSZ4SS6cE_9-72" style="edgeStyle=orthogonalEdgeStyle;rounded=0;orthogonalLoop=1;jettySize=auto;html=1;entryX=0;entryY=0.5;entryDx=0;entryDy=0;" parent="1" source="1FVmbJvEUlSZ4SS6cE_9-39" target="1FVmbJvEUlSZ4SS6cE_9-45" edge="1">
          <mxGeometry relative="1" as="geometry">
            <Array as="points">
              <mxPoint x="800" y="-300" />
              <mxPoint x="800" y="-65" />
              <mxPoint x="881" y="-65" />
              <mxPoint x="881" y="170" />
              <mxPoint x="960" y="170" />
              <mxPoint x="960" y="400" />
            </Array>
          </mxGeometry>
        </mxCell>
        <mxCell id="1FVmbJvEUlSZ4SS6cE_9-73" style="edgeStyle=orthogonalEdgeStyle;rounded=0;orthogonalLoop=1;jettySize=auto;html=1;entryX=0.75;entryY=0;entryDx=0;entryDy=0;" parent="1" source="1FVmbJvEUlSZ4SS6cE_9-40" target="1FVmbJvEUlSZ4SS6cE_9-46" edge="1">
          <mxGeometry relative="1" as="geometry">
            <Array as="points">
              <mxPoint x="1060" y="-300" />
              <mxPoint x="1060" y="-65" />
              <mxPoint x="1211" y="-65" />
              <mxPoint x="1211" y="210" />
              <mxPoint x="1241" y="210" />
            </Array>
          </mxGeometry>
        </mxCell>
        <mxCell id="1FVmbJvEUlSZ4SS6cE_9-74" style="edgeStyle=orthogonalEdgeStyle;rounded=0;orthogonalLoop=1;jettySize=auto;html=1;entryX=0;entryY=0.5;entryDx=0;entryDy=0;" parent="1" source="1FVmbJvEUlSZ4SS6cE_9-40" target="1FVmbJvEUlSZ4SS6cE_9-49" edge="1">
          <mxGeometry relative="1" as="geometry">
            <Array as="points">
              <mxPoint x="1131" y="-240" />
              <mxPoint x="830" y="-240" />
              <mxPoint x="830" y="280" />
            </Array>
          </mxGeometry>
        </mxCell>
        <mxCell id="1FVmbJvEUlSZ4SS6cE_9-83" style="edgeStyle=orthogonalEdgeStyle;rounded=0;orthogonalLoop=1;jettySize=auto;html=1;" parent="1" source="1FVmbJvEUlSZ4SS6cE_9-40" target="1FVmbJvEUlSZ4SS6cE_9-57" edge="1">
          <mxGeometry relative="1" as="geometry">
            <Array as="points">
              <mxPoint x="1040" y="-300" />
              <mxPoint x="1040" y="-40" />
              <mxPoint x="231" y="-40" />
            </Array>
          </mxGeometry>
        </mxCell>
        <mxCell id="1FVmbJvEUlSZ4SS6cE_9-85" style="edgeStyle=orthogonalEdgeStyle;rounded=0;orthogonalLoop=1;jettySize=auto;html=1;entryX=1;entryY=0.75;entryDx=0;entryDy=0;" parent="1" source="1FVmbJvEUlSZ4SS6cE_9-40" target="1FVmbJvEUlSZ4SS6cE_9-60" edge="1">
          <mxGeometry relative="1" as="geometry">
            <Array as="points">
              <mxPoint x="710" y="-300" />
              <mxPoint x="710" y="200" />
              <mxPoint x="150" y="200" />
              <mxPoint x="150" y="275" />
              <mxPoint x="-40" y="275" />
              <mxPoint x="-40" y="545" />
            </Array>
          </mxGeometry>
        </mxCell>
        <mxCell id="1FVmbJvEUlSZ4SS6cE_9-40" value="WishlistService" style="rounded=0;whiteSpace=wrap;html=1;" parent="1" vertex="1">
          <mxGeometry x="1382" y="-350" width="120" height="60" as="geometry" />
        </mxCell>
        <mxCell id="1FVmbJvEUlSZ4SS6cE_9-75" style="edgeStyle=orthogonalEdgeStyle;rounded=0;orthogonalLoop=1;jettySize=auto;html=1;" parent="1" source="1FVmbJvEUlSZ4SS6cE_9-42" target="1FVmbJvEUlSZ4SS6cE_9-48" edge="1">
          <mxGeometry relative="1" as="geometry">
            <Array as="points">
              <mxPoint x="1371" y="-190" />
            </Array>
          </mxGeometry>
        </mxCell>
        <mxCell id="1FVmbJvEUlSZ4SS6cE_9-86" style="edgeStyle=orthogonalEdgeStyle;rounded=0;orthogonalLoop=1;jettySize=auto;html=1;entryX=0.75;entryY=0;entryDx=0;entryDy=0;" parent="1" source="1FVmbJvEUlSZ4SS6cE_9-42" target="1FVmbJvEUlSZ4SS6cE_9-59" edge="1">
          <mxGeometry relative="1" as="geometry">
            <Array as="points">
              <mxPoint x="940" y="30" />
              <mxPoint x="421" y="30" />
            </Array>
          </mxGeometry>
        </mxCell>
        <mxCell id="1FVmbJvEUlSZ4SS6cE_9-87" style="edgeStyle=orthogonalEdgeStyle;rounded=0;orthogonalLoop=1;jettySize=auto;html=1;" parent="1" source="1FVmbJvEUlSZ4SS6cE_9-42" target="1FVmbJvEUlSZ4SS6cE_9-58" edge="1">
          <mxGeometry relative="1" as="geometry">
            <Array as="points">
              <mxPoint x="971" />
              <mxPoint x="546" />
            </Array>
          </mxGeometry>
        </mxCell>
        <mxCell id="JtzDzvr9ybFeHx1LqQPv-1" style="edgeStyle=orthogonalEdgeStyle;rounded=0;orthogonalLoop=1;jettySize=auto;html=1;entryX=0.5;entryY=0;entryDx=0;entryDy=0;" edge="1" parent="1" source="1FVmbJvEUlSZ4SS6cE_9-42" target="1FVmbJvEUlSZ4SS6cE_9-47">
          <mxGeometry relative="1" as="geometry">
            <Array as="points">
              <mxPoint x="1282" y="-110" />
              <mxPoint x="1526" y="-110" />
            </Array>
          </mxGeometry>
        </mxCell>
        <mxCell id="1FVmbJvEUlSZ4SS6cE_9-42" value="OrderService" style="rounded=0;whiteSpace=wrap;html=1;" parent="1" vertex="1">
          <mxGeometry x="1222" y="-220" width="120" height="60" as="geometry" />
        </mxCell>
        <mxCell id="1FVmbJvEUlSZ4SS6cE_9-44" value="Models" style="text;html=1;align=center;verticalAlign=middle;whiteSpace=wrap;rounded=0;" parent="1" vertex="1">
          <mxGeometry x="1050" y="260" width="140" height="30" as="geometry" />
        </mxCell>
        <mxCell id="1FVmbJvEUlSZ4SS6cE_9-45" value="&lt;div&gt;User&lt;/div&gt;" style="rounded=0;whiteSpace=wrap;html=1;" parent="1" vertex="1">
          <mxGeometry x="990" y="370" width="120" height="60" as="geometry" />
        </mxCell>
        <mxCell id="1FVmbJvEUlSZ4SS6cE_9-46" value="Wishlist" style="rounded=0;whiteSpace=wrap;html=1;" parent="1" vertex="1">
          <mxGeometry x="1151" y="370" width="120" height="60" as="geometry" />
        </mxCell>
        <mxCell id="1FVmbJvEUlSZ4SS6cE_9-47" value="OrderItem" style="rounded=0;whiteSpace=wrap;html=1;" parent="1" vertex="1">
          <mxGeometry x="1461" y="370" width="130" height="60" as="geometry" />
        </mxCell>
        <mxCell id="1FVmbJvEUlSZ4SS6cE_9-48" value="Order" style="rounded=0;whiteSpace=wrap;html=1;" parent="1" vertex="1">
          <mxGeometry x="1311" y="370" width="120" height="60" as="geometry" />
        </mxCell>
        <mxCell id="1FVmbJvEUlSZ4SS6cE_9-49" value="&lt;div&gt;WishlistItem&lt;/div&gt;" style="rounded=0;whiteSpace=wrap;html=1;" parent="1" vertex="1">
          <mxGeometry x="990" y="480" width="120" height="60" as="geometry" />
        </mxCell>
        <mxCell id="1FVmbJvEUlSZ4SS6cE_9-50" value="Shoe" style="rounded=0;whiteSpace=wrap;html=1;" parent="1" vertex="1">
          <mxGeometry x="1151" y="480" width="120" height="60" as="geometry" />
        </mxCell>
        <mxCell id="1FVmbJvEUlSZ4SS6cE_9-51" value="Style" style="rounded=0;whiteSpace=wrap;html=1;" parent="1" vertex="1">
          <mxGeometry x="1461" y="480" width="130" height="60" as="geometry" />
        </mxCell>
        <mxCell id="1FVmbJvEUlSZ4SS6cE_9-52" value="Brand" style="rounded=0;whiteSpace=wrap;html=1;" parent="1" vertex="1">
          <mxGeometry x="1311" y="480" width="120" height="60" as="geometry" />
        </mxCell>
        <mxCell id="1FVmbJvEUlSZ4SS6cE_9-53" value="Categroy" style="rounded=0;whiteSpace=wrap;html=1;" parent="1" vertex="1">
          <mxGeometry x="985" y="570" width="130" height="60" as="geometry" />
        </mxCell>
        <mxCell id="1FVmbJvEUlSZ4SS6cE_9-55" value="Repositories" style="text;html=1;align=center;verticalAlign=middle;whiteSpace=wrap;rounded=0;" parent="1" vertex="1">
          <mxGeometry x="-120" y="280" width="140" height="30" as="geometry" />
        </mxCell>
        <mxCell id="1FVmbJvEUlSZ4SS6cE_9-56" value="&lt;div&gt;UserRepository&lt;/div&gt;" style="rounded=0;whiteSpace=wrap;html=1;" parent="1" vertex="1">
          <mxGeometry x="-180" y="390" width="120" height="60" as="geometry" />
        </mxCell>
        <mxCell id="1FVmbJvEUlSZ4SS6cE_9-57" value="WishlistRepository" style="rounded=0;whiteSpace=wrap;html=1;" parent="1" vertex="1">
          <mxGeometry x="-19" y="390" width="120" height="60" as="geometry" />
        </mxCell>
        <mxCell id="1FVmbJvEUlSZ4SS6cE_9-58" value="OrderItemRepository" style="rounded=0;whiteSpace=wrap;html=1;" parent="1" vertex="1">
          <mxGeometry x="291" y="390" width="130" height="60" as="geometry" />
        </mxCell>
        <mxCell id="1FVmbJvEUlSZ4SS6cE_9-59" value="OrderRepository" style="rounded=0;whiteSpace=wrap;html=1;" parent="1" vertex="1">
          <mxGeometry x="141" y="390" width="120" height="60" as="geometry" />
        </mxCell>
        <mxCell id="1FVmbJvEUlSZ4SS6cE_9-60" value="&lt;div&gt;WishlistItemRepository&lt;/div&gt;" style="rounded=0;whiteSpace=wrap;html=1;" parent="1" vertex="1">
          <mxGeometry x="-190" y="500" width="120" height="60" as="geometry" />
        </mxCell>
        <mxCell id="1FVmbJvEUlSZ4SS6cE_9-61" value="ShoeRepository" style="rounded=0;whiteSpace=wrap;html=1;" parent="1" vertex="1">
          <mxGeometry x="-19" y="500" width="120" height="60" as="geometry" />
        </mxCell>
        <mxCell id="1FVmbJvEUlSZ4SS6cE_9-62" value="StyleRepository" style="rounded=0;whiteSpace=wrap;html=1;" parent="1" vertex="1">
          <mxGeometry x="291" y="500" width="130" height="60" as="geometry" />
        </mxCell>
        <mxCell id="1FVmbJvEUlSZ4SS6cE_9-63" value="BrandRepository" style="rounded=0;whiteSpace=wrap;html=1;" parent="1" vertex="1">
          <mxGeometry x="141" y="500" width="120" height="60" as="geometry" />
        </mxCell>
        <mxCell id="1FVmbJvEUlSZ4SS6cE_9-64" value="CategroyRepository" style="rounded=0;whiteSpace=wrap;html=1;" parent="1" vertex="1">
          <mxGeometry x="-185" y="590" width="130" height="60" as="geometry" />
        </mxCell>
        <mxCell id="1FVmbJvEUlSZ4SS6cE_9-81" style="edgeStyle=orthogonalEdgeStyle;rounded=0;orthogonalLoop=1;jettySize=auto;html=1;" parent="1" source="1FVmbJvEUlSZ4SS6cE_9-39" target="1FVmbJvEUlSZ4SS6cE_9-56" edge="1">
          <mxGeometry relative="1" as="geometry">
            <Array as="points">
              <mxPoint x="690" y="-300" />
              <mxPoint x="690" y="-20" />
              <mxPoint x="-90" y="-20" />
            </Array>
          </mxGeometry>
        </mxCell>
        <mxCell id="1FVmbJvEUlSZ4SS6cE_9-39" value="UserService&lt;div&gt;&lt;br&gt;&lt;/div&gt;" style="rounded=0;whiteSpace=wrap;html=1;" parent="1" vertex="1">
          <mxGeometry x="1221" y="-350" width="120" height="60" as="geometry" />
        </mxCell>
        <mxCell id="1FVmbJvEUlSZ4SS6cE_9-77" style="edgeStyle=orthogonalEdgeStyle;rounded=0;orthogonalLoop=1;jettySize=auto;html=1;" parent="1" source="1FVmbJvEUlSZ4SS6cE_9-41" target="1FVmbJvEUlSZ4SS6cE_9-50" edge="1">
          <mxGeometry relative="1" as="geometry">
            <Array as="points">
              <mxPoint x="1190" y="280" />
            </Array>
          </mxGeometry>
        </mxCell>
        <mxCell id="1FVmbJvEUlSZ4SS6cE_9-78" style="edgeStyle=orthogonalEdgeStyle;rounded=0;orthogonalLoop=1;jettySize=auto;html=1;entryX=0.25;entryY=1;entryDx=0;entryDy=0;" parent="1" source="1FVmbJvEUlSZ4SS6cE_9-41" target="1FVmbJvEUlSZ4SS6cE_9-52" edge="1">
          <mxGeometry relative="1" as="geometry" />
        </mxCell>
        <mxCell id="1FVmbJvEUlSZ4SS6cE_9-79" style="edgeStyle=orthogonalEdgeStyle;rounded=0;orthogonalLoop=1;jettySize=auto;html=1;entryX=1;entryY=0.5;entryDx=0;entryDy=0;" parent="1" source="1FVmbJvEUlSZ4SS6cE_9-41" target="1FVmbJvEUlSZ4SS6cE_9-51" edge="1">
          <mxGeometry relative="1" as="geometry" />
        </mxCell>
        <mxCell id="1FVmbJvEUlSZ4SS6cE_9-80" style="edgeStyle=orthogonalEdgeStyle;rounded=0;orthogonalLoop=1;jettySize=auto;html=1;entryX=1;entryY=0.25;entryDx=0;entryDy=0;" parent="1" source="1FVmbJvEUlSZ4SS6cE_9-41" target="1FVmbJvEUlSZ4SS6cE_9-53" edge="1">
          <mxGeometry relative="1" as="geometry">
            <Array as="points">
              <mxPoint x="1420" y="70" />
              <mxPoint x="1249" y="70" />
              <mxPoint x="1249" y="585" />
            </Array>
          </mxGeometry>
        </mxCell>
        <mxCell id="1FVmbJvEUlSZ4SS6cE_9-88" style="edgeStyle=orthogonalEdgeStyle;rounded=0;orthogonalLoop=1;jettySize=auto;html=1;" parent="1" source="1FVmbJvEUlSZ4SS6cE_9-41" target="1FVmbJvEUlSZ4SS6cE_9-62" edge="1">
          <mxGeometry relative="1" as="geometry">
            <Array as="points">
              <mxPoint x="1136" y="-20" />
              <mxPoint x="730" y="-20" />
              <mxPoint x="730" y="260" />
            </Array>
          </mxGeometry>
        </mxCell>
        <mxCell id="1FVmbJvEUlSZ4SS6cE_9-90" style="edgeStyle=orthogonalEdgeStyle;rounded=0;orthogonalLoop=1;jettySize=auto;html=1;" parent="1" source="1FVmbJvEUlSZ4SS6cE_9-41" target="1FVmbJvEUlSZ4SS6cE_9-63" edge="1">
          <mxGeometry relative="1" as="geometry">
            <Array as="points">
              <mxPoint x="1447" y="20" />
              <mxPoint x="470" y="20" />
              <mxPoint x="470" y="470" />
              <mxPoint x="201" y="470" />
            </Array>
          </mxGeometry>
        </mxCell>
        <mxCell id="1FVmbJvEUlSZ4SS6cE_9-92" style="edgeStyle=orthogonalEdgeStyle;rounded=0;orthogonalLoop=1;jettySize=auto;html=1;entryX=1;entryY=0.75;entryDx=0;entryDy=0;" parent="1" source="1FVmbJvEUlSZ4SS6cE_9-41" target="1FVmbJvEUlSZ4SS6cE_9-64" edge="1">
          <mxGeometry relative="1" as="geometry">
            <Array as="points">
              <mxPoint x="730" y="-170" />
              <mxPoint x="730" y="365" />
              <mxPoint x="-30" y="365" />
              <mxPoint x="-30" y="635" />
            </Array>
          </mxGeometry>
        </mxCell>
        <mxCell id="EVBvrVHT5wY3ZJYpNXG3-1" style="edgeStyle=orthogonalEdgeStyle;rounded=0;orthogonalLoop=1;jettySize=auto;html=1;entryX=1;entryY=0.75;entryDx=0;entryDy=0;" parent="1" source="1FVmbJvEUlSZ4SS6cE_9-41" target="1FVmbJvEUlSZ4SS6cE_9-61" edge="1">
          <mxGeometry relative="1" as="geometry">
            <Array as="points">
              <mxPoint x="1447" y="110" />
              <mxPoint x="140" y="110" />
              <mxPoint x="140" y="545" />
            </Array>
          </mxGeometry>
        </mxCell>
        <mxCell id="1FVmbJvEUlSZ4SS6cE_9-41" value="ShoeService" style="rounded=0;whiteSpace=wrap;html=1;" parent="1" vertex="1">
          <mxGeometry x="1382" y="-220" width="130" height="60" as="geometry" />
        </mxCell>
      </root>
    </mxGraphModel>
  </diagram>
</mxfile>
